<mxfile host="app.diagrams.net" modified="2023-05-18T05:54:19.417Z" agent="Mozilla/5.0 (Windows NT 10.0; Win64; x64) AppleWebKit/537.36 (KHTML, like Gecko) Chrome/113.0.0.0 Safari/537.36 Edg/113.0.1774.35" etag="UrwrL6Nw0Mo3RF0vaCSc" version="21.2.9" type="device" pages="3">
  <diagram name="Diagrama Componentes" id="822b0af5-4adb-64df-f703-e8dfc1f81529">
    <mxGraphModel dx="1650" dy="1818" grid="1" gridSize="10" guides="1" tooltips="1" connect="1" arrows="1" fold="1" page="1" pageScale="1" pageWidth="1100" pageHeight="850" background="none" math="0" shadow="0">
      <root>
        <mxCell id="0" />
        <mxCell id="1" parent="0" />
        <mxCell id="KCQpYSTlv-TtCMBwQwSM-52" value="" style="shape=ext;double=1;rounded=1;whiteSpace=wrap;html=1;fillColor=none;" vertex="1" parent="1">
          <mxGeometry x="30" y="66.5" width="930" height="293.5" as="geometry" />
        </mxCell>
        <mxCell id="KCQpYSTlv-TtCMBwQwSM-16" value="" style="verticalLabelPosition=bottom;sketch=0;aspect=fixed;html=1;verticalAlign=top;align=center;outlineConnect=0;shape=mxgraph.citrix.cloud;fillColor=none;opacity=11;shadow=1;" vertex="1" parent="1">
          <mxGeometry x="100" y="426" width="439.52" height="286.85" as="geometry" />
        </mxCell>
        <mxCell id="KCQpYSTlv-TtCMBwQwSM-60" value="" style="ellipse;shape=doubleEllipse;whiteSpace=wrap;html=1;fillColor=none;" vertex="1" parent="1">
          <mxGeometry x="550" y="476" width="370" height="460" as="geometry" />
        </mxCell>
        <mxCell id="KCQpYSTlv-TtCMBwQwSM-26" style="edgeStyle=orthogonalEdgeStyle;rounded=0;orthogonalLoop=1;jettySize=auto;html=1;exitX=0.182;exitY=0.911;exitDx=0;exitDy=0;exitPerimeter=0;startArrow=classic;startFill=1;" edge="1" parent="1" source="KCQpYSTlv-TtCMBwQwSM-9" target="KCQpYSTlv-TtCMBwQwSM-15">
          <mxGeometry relative="1" as="geometry">
            <Array as="points">
              <mxPoint x="134" y="340" />
              <mxPoint x="190" y="340" />
            </Array>
          </mxGeometry>
        </mxCell>
        <mxCell id="KCQpYSTlv-TtCMBwQwSM-9" value="&lt;font size=&quot;1&quot; style=&quot;&quot;&gt;&lt;b style=&quot;font-size: 24px;&quot;&gt;C1&lt;/b&gt;&lt;/font&gt;" style="triangle;whiteSpace=wrap;html=1;rotation=30;horizontal=1;verticalAlign=bottom;align=left;fillColor=none;" vertex="1" parent="1">
          <mxGeometry x="136.35" y="82.64" width="280.15" height="318.24" as="geometry" />
        </mxCell>
        <mxCell id="KCQpYSTlv-TtCMBwQwSM-1" value="&lt;font style=&quot;font-size: 17px;&quot;&gt;Application Movil&lt;/font&gt;" style="verticalLabelPosition=bottom;sketch=0;aspect=fixed;html=1;verticalAlign=top;strokeColor=none;align=center;outlineConnect=0;shape=mxgraph.citrix.cell_phone;fontSize=17;" vertex="1" parent="1">
          <mxGeometry x="220" y="222" width="25" height="60" as="geometry" />
        </mxCell>
        <mxCell id="KCQpYSTlv-TtCMBwQwSM-2" value="&lt;font style=&quot;font-size: 17px;&quot;&gt;Application &lt;br&gt;Web (SPA)&lt;/font&gt;" style="verticalLabelPosition=bottom;sketch=0;aspect=fixed;html=1;verticalAlign=top;strokeColor=none;align=center;outlineConnect=0;shape=mxgraph.citrix.browser;fontSize=17;" vertex="1" parent="1">
          <mxGeometry x="200" y="102" width="47.5" height="72.5" as="geometry" />
        </mxCell>
        <mxCell id="KCQpYSTlv-TtCMBwQwSM-3" value="" style="whiteSpace=wrap;html=1;verticalAlign=top;strokeColor=none;sketch=0;" vertex="1" parent="1">
          <mxGeometry x="557.5" y="130" width="120" height="60" as="geometry" />
        </mxCell>
        <mxCell id="KCQpYSTlv-TtCMBwQwSM-37" style="edgeStyle=orthogonalEdgeStyle;rounded=0;orthogonalLoop=1;jettySize=auto;html=1;entryX=0;entryY=0.25;entryDx=0;entryDy=0;startArrow=classic;startFill=1;" edge="1" parent="1" source="KCQpYSTlv-TtCMBwQwSM-5" target="KCQpYSTlv-TtCMBwQwSM-32">
          <mxGeometry relative="1" as="geometry">
            <mxPoint x="580" y="510" as="targetPoint" />
          </mxGeometry>
        </mxCell>
        <mxCell id="KCQpYSTlv-TtCMBwQwSM-5" value="&lt;font style=&quot;font-size: 18px;&quot;&gt;&lt;span style=&quot;font-size: 18px;&quot;&gt;Servicios &lt;br&gt;Internos (API)&lt;/span&gt;&lt;br style=&quot;font-size: 18px;&quot;&gt;&lt;font style=&quot;font-size: 18px;&quot;&gt;&lt;b style=&quot;font-size: 18px;&quot;&gt;C1&lt;/b&gt;&lt;/font&gt;&lt;/font&gt;" style="verticalLabelPosition=bottom;sketch=0;aspect=fixed;html=1;verticalAlign=top;strokeColor=none;align=center;outlineConnect=0;shape=mxgraph.citrix.worxhome;fillColor=#DB9EFF;gradientColor=#712FA2;gradientDirection=south;points=[[0.82,1,0,0,15],[0.96,1,0,0,18]];fontSize=18;" vertex="1" parent="1">
          <mxGeometry x="510" y="126" width="96" height="96" as="geometry" />
        </mxCell>
        <mxCell id="KCQpYSTlv-TtCMBwQwSM-53" style="edgeStyle=orthogonalEdgeStyle;rounded=0;orthogonalLoop=1;jettySize=auto;html=1;entryX=0.5;entryY=0;entryDx=0;entryDy=0;" edge="1" parent="1" source="KCQpYSTlv-TtCMBwQwSM-7" target="KCQpYSTlv-TtCMBwQwSM-9">
          <mxGeometry relative="1" as="geometry">
            <Array as="points">
              <mxPoint x="479" y="90" />
              <mxPoint x="316" y="90" />
            </Array>
          </mxGeometry>
        </mxCell>
        <mxCell id="KCQpYSTlv-TtCMBwQwSM-7" value="USERS" style="verticalLabelPosition=bottom;sketch=0;aspect=fixed;html=1;verticalAlign=top;strokeColor=none;align=center;outlineConnect=0;shape=mxgraph.citrix.users;" vertex="1" parent="1">
          <mxGeometry x="491" y="-30" width="58.64" height="50" as="geometry" />
        </mxCell>
        <mxCell id="KCQpYSTlv-TtCMBwQwSM-25" value="" style="edgeStyle=orthogonalEdgeStyle;rounded=0;orthogonalLoop=1;jettySize=auto;html=1;entryX=0.042;entryY=0.642;entryDx=0;entryDy=0;entryPerimeter=0;startArrow=classicThin;startFill=1;" edge="1" parent="1" source="KCQpYSTlv-TtCMBwQwSM-15" target="7d933b09d9755ecc-4">
          <mxGeometry relative="1" as="geometry" />
        </mxCell>
        <mxCell id="KCQpYSTlv-TtCMBwQwSM-42" style="edgeStyle=orthogonalEdgeStyle;rounded=0;orthogonalLoop=1;jettySize=auto;html=1;" edge="1" parent="1" source="KCQpYSTlv-TtCMBwQwSM-15" target="KCQpYSTlv-TtCMBwQwSM-39">
          <mxGeometry relative="1" as="geometry" />
        </mxCell>
        <mxCell id="KCQpYSTlv-TtCMBwQwSM-15" value="&lt;font style=&quot;font-size: 19px;&quot;&gt;API Servicios &lt;br&gt;Externos&lt;/font&gt;&lt;br&gt;&lt;font style=&quot;font-size: 26px;&quot;&gt;&lt;b&gt;C2&lt;/b&gt;&lt;/font&gt;" style="verticalLabelPosition=bottom;sketch=0;aspect=fixed;html=1;verticalAlign=top;strokeColor=none;align=center;outlineConnect=0;shape=mxgraph.citrix.web_service;" vertex="1" parent="1">
          <mxGeometry x="170" y="484.5" width="94.5" height="90" as="geometry" />
        </mxCell>
        <mxCell id="KCQpYSTlv-TtCMBwQwSM-47" style="edgeStyle=orthogonalEdgeStyle;rounded=0;orthogonalLoop=1;jettySize=auto;html=1;entryX=1;entryY=0;entryDx=0;entryDy=0;startArrow=classic;startFill=1;" edge="1" parent="1" source="KCQpYSTlv-TtCMBwQwSM-28" target="KCQpYSTlv-TtCMBwQwSM-32">
          <mxGeometry relative="1" as="geometry" />
        </mxCell>
        <mxCell id="KCQpYSTlv-TtCMBwQwSM-28" value="&lt;font style=&quot;&quot;&gt;&lt;span style=&quot;font-size: 16px;&quot;&gt;DataBase &lt;br&gt;(Core Banco)&lt;/span&gt;&lt;br&gt;&lt;font style=&quot;font-size: 22px;&quot;&gt;&lt;b&gt;C1&lt;/b&gt;&lt;/font&gt;&lt;br&gt;&lt;/font&gt;" style="verticalLabelPosition=bottom;sketch=0;aspect=fixed;html=1;verticalAlign=top;strokeColor=none;align=center;outlineConnect=0;shape=mxgraph.citrix.database;" vertex="1" parent="1">
          <mxGeometry x="780" y="140" width="80.33" height="94.5" as="geometry" />
        </mxCell>
        <mxCell id="KCQpYSTlv-TtCMBwQwSM-46" style="edgeStyle=orthogonalEdgeStyle;rounded=0;orthogonalLoop=1;jettySize=auto;html=1;exitX=0.5;exitY=1;exitDx=0;exitDy=0;startArrow=classic;startFill=1;" edge="1" parent="1" source="KCQpYSTlv-TtCMBwQwSM-32" target="KCQpYSTlv-TtCMBwQwSM-45">
          <mxGeometry relative="1" as="geometry" />
        </mxCell>
        <mxCell id="KCQpYSTlv-TtCMBwQwSM-63" style="edgeStyle=orthogonalEdgeStyle;rounded=0;orthogonalLoop=1;jettySize=auto;html=1;" edge="1" parent="1" source="KCQpYSTlv-TtCMBwQwSM-32" target="KCQpYSTlv-TtCMBwQwSM-43">
          <mxGeometry relative="1" as="geometry" />
        </mxCell>
        <mxCell id="KCQpYSTlv-TtCMBwQwSM-32" value="C3&#xa;Servicios&#xa;Persistencia" style="swimlane;fontSize=20;startSize=23;fontStyle=0;horizontal=1;verticalAlign=top;fillColor=#b0e3e6;strokeColor=#0e8088;" vertex="1" parent="1">
          <mxGeometry x="670" y="556" width="130" height="80" as="geometry" />
        </mxCell>
        <mxCell id="KCQpYSTlv-TtCMBwQwSM-39" value="&lt;font style=&quot;font-size: 16px;&quot;&gt;AUTHORIZATION&lt;/font&gt;&lt;br&gt;&lt;font style=&quot;font-size: 23px;&quot;&gt;&lt;b&gt;C4&lt;/b&gt;&lt;/font&gt;" style="verticalLabelPosition=bottom;sketch=0;aspect=fixed;html=1;verticalAlign=top;strokeColor=none;align=center;outlineConnect=0;shape=mxgraph.citrix.proxy_server;" vertex="1" parent="1">
          <mxGeometry x="145.5" y="726" width="119" height="140" as="geometry" />
        </mxCell>
        <mxCell id="KCQpYSTlv-TtCMBwQwSM-50" value="" style="shape=doubleArrow;whiteSpace=wrap;html=1;arrowWidth=0.2413793103448276;arrowSize=0.2;" vertex="1" parent="1">
          <mxGeometry x="240" y="620" width="120" height="29" as="geometry" />
        </mxCell>
        <mxCell id="KCQpYSTlv-TtCMBwQwSM-54" value="&lt;font style=&quot;font-size: 23px;&quot;&gt;VISTA&lt;/font&gt;" style="shape=doubleArrow;whiteSpace=wrap;html=1;arrowWidth=0.3620689655172414;arrowSize=0.2;horizontal=1;verticalAlign=bottom;labelPosition=center;verticalLabelPosition=top;align=center;" vertex="1" parent="1">
          <mxGeometry x="330" y="174.5" width="170" height="29" as="geometry" />
        </mxCell>
        <mxCell id="7d933b09d9755ecc-4" value="&lt;font style=&quot;&quot;&gt;&lt;span style=&quot;font-size: 15px;&quot;&gt;Servicios Externos&lt;/span&gt;&lt;br&gt;&lt;span style=&quot;font-size: 15px;&quot;&gt;(Notificacaciones)&lt;/span&gt;&lt;br&gt;&lt;font style=&quot;font-size: 23px;&quot;&gt;&lt;b&gt;C2&lt;/b&gt;&lt;/font&gt;&lt;/font&gt;" style="verticalLabelPosition=bottom;aspect=fixed;html=1;verticalAlign=top;strokeColor=none;shape=mxgraph.citrix.directory_server;rounded=0;shadow=0;comic=0;fontFamily=Verdana;align=center;horizontal=1;labelPosition=right;" parent="1" vertex="1">
          <mxGeometry x="350" y="516" width="57.66" height="78.5" as="geometry" />
        </mxCell>
        <mxCell id="KCQpYSTlv-TtCMBwQwSM-36" style="edgeStyle=orthogonalEdgeStyle;rounded=0;orthogonalLoop=1;jettySize=auto;html=1;entryX=0;entryY=0;entryDx=0;entryDy=0;startArrow=classic;startFill=1;" edge="1" parent="1" source="KCQpYSTlv-TtCMBwQwSM-17" target="KCQpYSTlv-TtCMBwQwSM-60">
          <mxGeometry relative="1" as="geometry">
            <mxPoint x="620" y="576" as="targetPoint" />
          </mxGeometry>
        </mxCell>
        <mxCell id="KCQpYSTlv-TtCMBwQwSM-17" value="" style="verticalLabelPosition=bottom;sketch=0;aspect=fixed;html=1;verticalAlign=top;strokeColor=none;align=right;outlineConnect=0;shape=mxgraph.citrix.worxmail;fillColor=#112356;gradientColor=#63AFC6;gradientDirection=south;" vertex="1" parent="1">
          <mxGeometry x="420" y="530.25" width="50" height="50" as="geometry" />
        </mxCell>
        <mxCell id="KCQpYSTlv-TtCMBwQwSM-45" value="&lt;font style=&quot;&quot;&gt;&lt;span style=&quot;font-size: 17px;&quot;&gt;Repositorio&lt;/span&gt;&lt;br&gt;&lt;font style=&quot;font-size: 24px;&quot;&gt;&lt;b&gt;C3&lt;/b&gt;&lt;/font&gt;&lt;br&gt;&lt;/font&gt;" style="verticalLabelPosition=bottom;sketch=0;aspect=fixed;html=1;verticalAlign=top;strokeColor=none;align=center;outlineConnect=0;shape=mxgraph.citrix.geolocation_database;" vertex="1" parent="1">
          <mxGeometry x="759.9999999999999" y="712.85" width="97.35" height="90" as="geometry" />
        </mxCell>
        <mxCell id="KCQpYSTlv-TtCMBwQwSM-43" value="&lt;font style=&quot;font-size: 18px;&quot;&gt;Notificador&lt;/font&gt;&lt;br&gt;&lt;font style=&quot;font-size: 23px;&quot;&gt;&lt;b&gt;C3&lt;/b&gt;&lt;/font&gt;" style="verticalLabelPosition=bottom;sketch=0;aspect=fixed;html=1;verticalAlign=top;strokeColor=none;align=center;outlineConnect=0;shape=mxgraph.citrix.smtp_server;" vertex="1" parent="1">
          <mxGeometry x="600" y="696" width="117.3" height="142" as="geometry" />
        </mxCell>
        <mxCell id="KCQpYSTlv-TtCMBwQwSM-44" style="edgeStyle=orthogonalEdgeStyle;rounded=0;orthogonalLoop=1;jettySize=auto;html=1;exitX=0.139;exitY=0.938;exitDx=0;exitDy=0;exitPerimeter=0;" edge="1" parent="1" source="7d933b09d9755ecc-4" target="KCQpYSTlv-TtCMBwQwSM-43">
          <mxGeometry relative="1" as="geometry">
            <Array as="points">
              <mxPoint x="358" y="756" />
            </Array>
          </mxGeometry>
        </mxCell>
        <mxCell id="KCQpYSTlv-TtCMBwQwSM-59" value="" style="shape=doubleArrow;whiteSpace=wrap;html=1;arrowWidth=0.3793103448275862;arrowSize=0.09723842862699311;" vertex="1" parent="1">
          <mxGeometry x="264.5" y="886" width="411.36" height="29" as="geometry" />
        </mxCell>
        <mxCell id="KCQpYSTlv-TtCMBwQwSM-64" value="" style="endArrow=classic;startArrow=classic;html=1;rounded=0;entryX=0;entryY=0.75;entryDx=0;entryDy=0;dashed=1;dashPattern=12 12;" edge="1" parent="1" source="KCQpYSTlv-TtCMBwQwSM-39" target="KCQpYSTlv-TtCMBwQwSM-32">
          <mxGeometry width="50" height="50" relative="1" as="geometry">
            <mxPoint x="420" y="486" as="sourcePoint" />
            <mxPoint x="470" y="436" as="targetPoint" />
          </mxGeometry>
        </mxCell>
        <mxCell id="KCQpYSTlv-TtCMBwQwSM-68" value="&lt;font style=&quot;font-size: 17px;&quot;&gt;Injection &lt;br&gt;Dependencias&lt;/font&gt;" style="edgeLabel;html=1;align=center;verticalAlign=middle;resizable=0;points=[];" vertex="1" connectable="0" parent="KCQpYSTlv-TtCMBwQwSM-64">
          <mxGeometry x="0.1493" y="-1" relative="1" as="geometry">
            <mxPoint x="-38" y="22" as="offset" />
          </mxGeometry>
        </mxCell>
        <mxCell id="KCQpYSTlv-TtCMBwQwSM-65" value="" style="endArrow=classic;startArrow=classic;html=1;rounded=0;dashed=1;dashPattern=12 12;" edge="1" parent="1" source="KCQpYSTlv-TtCMBwQwSM-15" target="KCQpYSTlv-TtCMBwQwSM-5">
          <mxGeometry width="50" height="50" relative="1" as="geometry">
            <mxPoint x="420" y="430" as="sourcePoint" />
            <mxPoint x="470" y="380" as="targetPoint" />
          </mxGeometry>
        </mxCell>
        <mxCell id="KCQpYSTlv-TtCMBwQwSM-67" value="&lt;font style=&quot;font-size: 18px;&quot;&gt;Injection &lt;br&gt;Dependencias&lt;/font&gt;" style="edgeLabel;html=1;align=center;verticalAlign=middle;resizable=0;points=[];" vertex="1" connectable="0" parent="KCQpYSTlv-TtCMBwQwSM-65">
          <mxGeometry x="0.4804" relative="1" as="geometry">
            <mxPoint x="-127" y="118" as="offset" />
          </mxGeometry>
        </mxCell>
        <mxCell id="KCQpYSTlv-TtCMBwQwSM-66" value="&lt;font style=&quot;font-size: 21px;&quot;&gt;MODELO&lt;/font&gt;" style="shape=doubleArrow;whiteSpace=wrap;html=1;arrowWidth=0.3620689655172414;arrowSize=0.17333333333333334;labelPosition=center;verticalLabelPosition=top;align=center;verticalAlign=bottom;" vertex="1" parent="1">
          <mxGeometry x="610" y="140" width="170" height="29" as="geometry" />
        </mxCell>
        <mxCell id="KCQpYSTlv-TtCMBwQwSM-69" value="&lt;font style=&quot;font-size: 19px;&quot;&gt;&lt;b&gt;CONTROLADOR&lt;/b&gt;&lt;/font&gt;" style="shape=curlyBracket;whiteSpace=wrap;html=1;rounded=1;flipH=1;labelPosition=right;verticalLabelPosition=middle;align=center;verticalAlign=middle;rotation=90;dashed=1;dashPattern=8 8;perimeterSpacing=4;strokeWidth=3;horizontal=0;" vertex="1" parent="1">
          <mxGeometry x="520" y="-124" width="20" height="1010" as="geometry" />
        </mxCell>
      </root>
    </mxGraphModel>
  </diagram>
  <diagram id="W3dPvLH1EDtDICNsseBT" name="Diagrama Contenedores">
    <mxGraphModel dx="1500" dy="880" grid="1" gridSize="10" guides="1" tooltips="1" connect="1" arrows="1" fold="1" page="1" pageScale="1" pageWidth="850" pageHeight="1100" math="0" shadow="0">
      <root>
        <mxCell id="0" />
        <mxCell id="1" parent="0" />
        <mxCell id="0yWDEW1SBG1hnD1comCi-5" style="edgeStyle=orthogonalEdgeStyle;rounded=0;orthogonalLoop=1;jettySize=auto;html=1;entryX=0.5;entryY=0;entryDx=0;entryDy=0;" edge="1" parent="1" source="WjqKM4B1fCkWUsGFR12B-1" target="2bHqq48r1mERMidtY25M-1">
          <mxGeometry relative="1" as="geometry" />
        </mxCell>
        <mxCell id="0yWDEW1SBG1hnD1comCi-6" style="edgeStyle=orthogonalEdgeStyle;rounded=0;orthogonalLoop=1;jettySize=auto;html=1;entryX=0.15;entryY=0.05;entryDx=0;entryDy=0;entryPerimeter=0;" edge="1" parent="1" source="WjqKM4B1fCkWUsGFR12B-1" target="shghPps0TPGHPsKy96JO-1">
          <mxGeometry relative="1" as="geometry" />
        </mxCell>
        <mxCell id="WjqKM4B1fCkWUsGFR12B-1" value="" style="verticalLabelPosition=bottom;sketch=0;aspect=fixed;html=1;verticalAlign=top;strokeColor=none;align=center;outlineConnect=0;shape=mxgraph.citrix.access_card;" vertex="1" parent="1">
          <mxGeometry x="280" y="310" width="66.6" height="90" as="geometry" />
        </mxCell>
        <mxCell id="0yWDEW1SBG1hnD1comCi-3" style="edgeStyle=orthogonalEdgeStyle;rounded=0;orthogonalLoop=1;jettySize=auto;html=1;entryX=0.5;entryY=0;entryDx=0;entryDy=0;" edge="1" parent="1" source="shghPps0TPGHPsKy96JO-1" target="bQeOw8SwQRAd0Q8fJIm4-2">
          <mxGeometry relative="1" as="geometry" />
        </mxCell>
        <mxCell id="shghPps0TPGHPsKy96JO-1" value="&lt;font style=&quot;font-size: 16px;&quot;&gt;&lt;b&gt;CAPA DATOS&lt;/b&gt;&lt;/font&gt;" style="shape=datastore;whiteSpace=wrap;html=1;" vertex="1" parent="1">
          <mxGeometry x="480" y="335" width="70" height="75" as="geometry" />
        </mxCell>
        <mxCell id="0yWDEW1SBG1hnD1comCi-4" style="edgeStyle=orthogonalEdgeStyle;rounded=0;orthogonalLoop=1;jettySize=auto;html=1;entryX=1;entryY=0;entryDx=0;entryDy=0;" edge="1" parent="1" source="2bHqq48r1mERMidtY25M-1" target="bQeOw8SwQRAd0Q8fJIm4-3">
          <mxGeometry relative="1" as="geometry" />
        </mxCell>
        <mxCell id="2bHqq48r1mERMidtY25M-1" value="&lt;span style=&quot;font-weight: normal;&quot;&gt;&lt;font style=&quot;font-size: 17px;&quot;&gt;API Servicios&lt;/font&gt;&lt;/span&gt;" style="label;whiteSpace=wrap;html=1;image=img/clipart/Gear_128x128.png" vertex="1" parent="1">
          <mxGeometry x="243.3" y="500" width="140" height="60" as="geometry" />
        </mxCell>
        <mxCell id="bQeOw8SwQRAd0Q8fJIm4-1" value="Actor" style="shape=umlActor;verticalLabelPosition=bottom;verticalAlign=top;html=1;outlineConnect=0;" vertex="1" parent="1">
          <mxGeometry x="100" y="470" width="30" height="60" as="geometry" />
        </mxCell>
        <mxCell id="bQeOw8SwQRAd0Q8fJIm4-2" value="&lt;font style=&quot;font-size: 17px;&quot;&gt;&lt;b&gt;CAPA&amp;nbsp; &lt;br&gt;PERSISTENCIA&lt;/b&gt;&lt;/font&gt;" style="shape=internalStorage;whiteSpace=wrap;html=1;backgroundOutline=1;" vertex="1" parent="1">
          <mxGeometry x="470" y="475" width="130" height="110" as="geometry" />
        </mxCell>
        <mxCell id="0yWDEW1SBG1hnD1comCi-1" style="edgeStyle=orthogonalEdgeStyle;rounded=0;orthogonalLoop=1;jettySize=auto;html=1;" edge="1" parent="1" source="bQeOw8SwQRAd0Q8fJIm4-3" target="bQeOw8SwQRAd0Q8fJIm4-2">
          <mxGeometry relative="1" as="geometry" />
        </mxCell>
        <mxCell id="bQeOw8SwQRAd0Q8fJIm4-3" value="&lt;font style=&quot;font-size: 15px;&quot;&gt;&lt;b style=&quot;font-size: 15px;&quot;&gt;AUTORIZATION&lt;/b&gt;&lt;/font&gt;" style="rhombus;whiteSpace=wrap;html=1;strokeWidth=2;fillWeight=-1;hachureGap=8;fillStyle=cross-hatch;fillColor=#006600;sketch=1;labelPosition=center;verticalLabelPosition=bottom;align=center;verticalAlign=top;fontSize=15;" vertex="1" parent="1">
          <mxGeometry x="270" y="620" width="66.7" height="60" as="geometry" />
        </mxCell>
        <mxCell id="0yWDEW1SBG1hnD1comCi-10" value="" style="endArrow=classic;startArrow=classic;html=1;rounded=0;exitX=1;exitY=0.3333333333333333;exitDx=0;exitDy=0;exitPerimeter=0;dashed=1;dashPattern=12 12;" edge="1" parent="1" source="bQeOw8SwQRAd0Q8fJIm4-1" target="WjqKM4B1fCkWUsGFR12B-1">
          <mxGeometry width="50" height="50" relative="1" as="geometry">
            <mxPoint x="190" y="590" as="sourcePoint" />
            <mxPoint x="240" y="540" as="targetPoint" />
          </mxGeometry>
        </mxCell>
        <mxCell id="0yWDEW1SBG1hnD1comCi-11" value="" style="endArrow=classic;startArrow=classic;html=1;rounded=0;entryX=0;entryY=0.5;entryDx=0;entryDy=0;exitX=1;exitY=0.25;exitDx=0;exitDy=0;dashed=1;dashPattern=12 12;strokeWidth=3;" edge="1" parent="1" source="2bHqq48r1mERMidtY25M-1" target="shghPps0TPGHPsKy96JO-1">
          <mxGeometry width="50" height="50" relative="1" as="geometry">
            <mxPoint x="190" y="590" as="sourcePoint" />
            <mxPoint x="240" y="540" as="targetPoint" />
          </mxGeometry>
        </mxCell>
      </root>
    </mxGraphModel>
  </diagram>
  <diagram id="1Ux6MBT2NIG9fDdx0SQ9" name="Diagrama Contexto">
    <mxGraphModel dx="1650" dy="968" grid="1" gridSize="10" guides="1" tooltips="1" connect="1" arrows="1" fold="1" page="1" pageScale="1" pageWidth="850" pageHeight="1100" math="0" shadow="0">
      <root>
        <mxCell id="0" />
        <mxCell id="1" parent="0" />
        <mxCell id="uvCAEZ7OMMcuabBqhMxa-1" value="Actor" style="shape=umlActor;verticalLabelPosition=bottom;verticalAlign=top;html=1;outlineConnect=0;" vertex="1" parent="1">
          <mxGeometry x="150" y="310" width="30" height="60" as="geometry" />
        </mxCell>
        <mxCell id="uvCAEZ7OMMcuabBqhMxa-4" value="INTERFAZ" style="swimlane;fontStyle=1;childLayout=stackLayout;horizontal=1;startSize=26;fillColor=none;horizontalStack=0;resizeParent=1;resizeParentMax=0;resizeLast=0;collapsible=1;marginBottom=0;html=1;fontSize=15;" vertex="1" parent="1">
          <mxGeometry x="300" y="210" width="100" height="104" as="geometry" />
        </mxCell>
        <mxCell id="uvCAEZ7OMMcuabBqhMxa-5" value="DE" style="text;strokeColor=none;fillColor=none;align=left;verticalAlign=top;spacingLeft=4;spacingRight=4;overflow=hidden;rotatable=0;points=[[0,0.5],[1,0.5]];portConstraint=eastwest;whiteSpace=wrap;html=1;fontSize=16;fontStyle=1" vertex="1" parent="uvCAEZ7OMMcuabBqhMxa-4">
          <mxGeometry y="26" width="100" height="26" as="geometry" />
        </mxCell>
        <mxCell id="uvCAEZ7OMMcuabBqhMxa-6" value="USUARIOS" style="text;strokeColor=none;fillColor=none;align=left;verticalAlign=top;spacingLeft=4;spacingRight=4;overflow=hidden;rotatable=0;points=[[0,0.5],[1,0.5]];portConstraint=eastwest;whiteSpace=wrap;html=1;fontSize=16;fontStyle=1" vertex="1" parent="uvCAEZ7OMMcuabBqhMxa-4">
          <mxGeometry y="52" width="100" height="26" as="geometry" />
        </mxCell>
        <mxCell id="uvCAEZ7OMMcuabBqhMxa-7" value=".." style="text;strokeColor=none;fillColor=none;align=left;verticalAlign=top;spacingLeft=4;spacingRight=4;overflow=hidden;rotatable=0;points=[[0,0.5],[1,0.5]];portConstraint=eastwest;whiteSpace=wrap;html=1;fontStyle=1" vertex="1" parent="uvCAEZ7OMMcuabBqhMxa-4">
          <mxGeometry y="78" width="100" height="26" as="geometry" />
        </mxCell>
        <mxCell id="uvCAEZ7OMMcuabBqhMxa-8" value="SERVICIOS NOTIFICACIONES" style="label;whiteSpace=wrap;html=1;image=img/clipart/Gear_128x128.png;fontSize=16;" vertex="1" parent="1">
          <mxGeometry x="270" y="440" width="140" height="60" as="geometry" />
        </mxCell>
        <mxCell id="uvCAEZ7OMMcuabBqhMxa-9" value="SERVICIOS &lt;br style=&quot;font-size: 16px;&quot;&gt;BANCO" style="html=1;whiteSpace=wrap;container=1;recursiveResize=0;collapsible=0;fontSize=16;fontStyle=1" vertex="1" parent="1">
          <mxGeometry x="460" y="330" width="160" height="70" as="geometry" />
        </mxCell>
        <mxCell id="uvCAEZ7OMMcuabBqhMxa-10" value="" style="triangle;html=1;whiteSpace=wrap;" vertex="1" parent="uvCAEZ7OMMcuabBqhMxa-9">
          <mxGeometry x="20" y="20" width="20" height="30" as="geometry" />
        </mxCell>
        <mxCell id="uvCAEZ7OMMcuabBqhMxa-12" value="" style="curved=1;endArrow=classic;html=1;rounded=0;exitX=0.5;exitY=0;exitDx=0;exitDy=0;exitPerimeter=0;entryX=0;entryY=0.5;entryDx=0;entryDy=0;" edge="1" parent="1" source="uvCAEZ7OMMcuabBqhMxa-1" target="uvCAEZ7OMMcuabBqhMxa-5">
          <mxGeometry width="50" height="50" relative="1" as="geometry">
            <mxPoint x="250" y="470" as="sourcePoint" />
            <mxPoint x="300" y="420" as="targetPoint" />
            <Array as="points">
              <mxPoint x="210" y="260" />
            </Array>
          </mxGeometry>
        </mxCell>
        <mxCell id="uvCAEZ7OMMcuabBqhMxa-13" value="" style="curved=1;endArrow=classic;html=1;rounded=0;exitX=0;exitY=0.25;exitDx=0;exitDy=0;" edge="1" parent="1" source="uvCAEZ7OMMcuabBqhMxa-8">
          <mxGeometry width="50" height="50" relative="1" as="geometry">
            <mxPoint x="175" y="320" as="sourcePoint" />
            <mxPoint x="165" y="390" as="targetPoint" />
            <Array as="points">
              <mxPoint x="220" y="455" />
              <mxPoint x="200" y="430" />
            </Array>
          </mxGeometry>
        </mxCell>
        <mxCell id="uvCAEZ7OMMcuabBqhMxa-16" value="" style="curved=1;endArrow=classic;html=1;rounded=0;entryX=0.5;entryY=0;entryDx=0;entryDy=0;exitX=1;exitY=0.5;exitDx=0;exitDy=0;" edge="1" parent="1" source="uvCAEZ7OMMcuabBqhMxa-5" target="uvCAEZ7OMMcuabBqhMxa-9">
          <mxGeometry width="50" height="50" relative="1" as="geometry">
            <mxPoint x="380" y="260" as="sourcePoint" />
            <mxPoint x="300" y="420" as="targetPoint" />
            <Array as="points">
              <mxPoint x="500" y="270" />
            </Array>
          </mxGeometry>
        </mxCell>
        <mxCell id="uvCAEZ7OMMcuabBqhMxa-17" value="" style="curved=1;endArrow=classic;html=1;rounded=0;exitX=0.5;exitY=1;exitDx=0;exitDy=0;entryX=1;entryY=0.25;entryDx=0;entryDy=0;" edge="1" parent="1" source="uvCAEZ7OMMcuabBqhMxa-9" target="uvCAEZ7OMMcuabBqhMxa-8">
          <mxGeometry width="50" height="50" relative="1" as="geometry">
            <mxPoint x="250" y="470" as="sourcePoint" />
            <mxPoint x="430" y="480" as="targetPoint" />
            <Array as="points">
              <mxPoint x="510" y="430" />
              <mxPoint x="490" y="450" />
            </Array>
          </mxGeometry>
        </mxCell>
      </root>
    </mxGraphModel>
  </diagram>
</mxfile>
